<svg width="228" height="154" viewBox="0 0 228 154" fill="none" xmlns="http://www.w3.org/2000/svg">
<path d="M13.6598 145.072H7.27575L6.14775 148H0.38775L7.73175 131.2H13.2998L20.6438 148H14.7878L13.6598 145.072ZM12.0998 140.992L10.4678 136.768L8.83575 140.992H12.0998ZM36.5477 148L36.4997 140.344L32.8517 146.488H30.3557L26.7077 140.608V148H21.5477V131.2H26.2037L31.6757 140.152L37.0037 131.2H41.6597L41.7077 148H36.5477ZM58.4141 143.728V148H44.4461V131.2H58.1021V135.472H50.0141V137.44H57.1181V141.52H50.0141V143.728H58.4141ZM67.7946 143.776H66.2586V148H60.5946V131.2H68.6826C70.2346 131.2 71.5866 131.456 72.7386 131.968C73.8906 132.48 74.7786 133.216 75.4026 134.176C76.0266 135.136 76.3386 136.256 76.3386 137.536C76.3386 138.736 76.0666 139.784 75.5226 140.68C74.9786 141.576 74.1946 142.288 73.1706 142.816L76.6986 148H70.6506L67.7946 143.776ZM70.6266 137.536C70.6266 136.912 70.4346 136.432 70.0506 136.096C69.6666 135.744 69.0906 135.568 68.3226 135.568H66.2586V139.504H68.3226C69.0906 139.504 69.6666 139.336 70.0506 139C70.4346 138.648 70.6266 138.16 70.6266 137.536ZM78.4774 131.2H84.1414V148H78.4774V131.2ZM95.556 148.384C93.78 148.384 92.18 148.016 90.756 147.28C89.332 146.528 88.212 145.488 87.396 144.16C86.596 142.816 86.196 141.296 86.196 139.6C86.196 137.904 86.596 136.392 87.396 135.064C88.212 133.72 89.332 132.68 90.756 131.944C92.18 131.192 93.78 130.816 95.556 130.816C97.188 130.816 98.644 131.104 99.924 131.68C101.204 132.256 102.26 133.088 103.092 134.176L99.516 137.368C98.476 136.056 97.252 135.4 95.844 135.4C94.66 135.4 93.708 135.784 92.988 136.552C92.268 137.304 91.908 138.32 91.908 139.6C91.908 140.88 92.268 141.904 92.988 142.672C93.708 143.424 94.66 143.8 95.844 143.8C97.252 143.8 98.476 143.144 99.516 141.832L103.092 145.024C102.26 146.112 101.204 146.944 99.924 147.52C98.644 148.096 97.188 148.384 95.556 148.384ZM115.941 145.072H109.557L108.429 148H102.669L110.013 131.2H115.581L122.925 148H117.069L115.941 145.072ZM114.381 140.992L112.749 136.768L111.117 140.992H114.381ZM140.389 131.2V148H135.733L129.349 140.368V148H123.829V131.2H128.485L134.869 138.832V131.2H140.389ZM165.313 148L165.265 140.344L161.617 146.488H159.121L155.473 140.608V148H150.313V131.2H154.969L160.441 140.152L165.769 131.2H170.425L170.473 148H165.313ZM184.66 145.072H178.276L177.148 148H171.388L178.732 131.2H184.3L191.644 148H185.788L184.66 145.072ZM183.1 140.992L181.468 136.768L179.836 140.992H183.1ZM192.548 131.2H200.828C202.7 131.2 204.348 131.544 205.772 132.232C207.212 132.904 208.324 133.872 209.108 135.136C209.908 136.4 210.308 137.888 210.308 139.6C210.308 141.312 209.908 142.8 209.108 144.064C208.324 145.328 207.212 146.304 205.772 146.992C204.348 147.664 202.7 148 200.828 148H192.548V131.2ZM200.588 143.584C201.804 143.584 202.772 143.24 203.492 142.552C204.228 141.848 204.596 140.864 204.596 139.6C204.596 138.336 204.228 137.36 203.492 136.672C202.772 135.968 201.804 135.616 200.588 135.616H198.212V143.584H200.588ZM226.344 143.728V148H212.376V131.2H226.032V135.472H217.944V137.44H225.048V141.52H217.944V143.728H226.344Z" fill="#202020"/>
<circle cx="113.5" cy="54" r="53.5" stroke="#187B32"/>
<g clip-path="url(#clip0_1_3343)">
<path d="M137.011 38.5012V67.3614C136.863 67.5237 136.925 67.7384 136.873 67.9263C136.167 70.5434 134.082 72.1564 131.281 72.1662C125.956 72.1845 120.633 72.1674 115.308 72.1759C114.972 72.1759 114.867 72.0844 114.87 71.7391C114.886 69.5783 114.885 67.4175 114.872 65.258C114.87 64.8395 115.066 64.2941 114.782 64.033C114.503 63.778 113.962 63.9439 113.535 63.9439C108.64 63.9415 103.743 63.9439 98.8478 63.9439C98.5361 63.9439 98.2343 63.8719 98.2368 64.3978C98.2588 68.856 98.2515 73.3143 98.2539 77.7713H89.9895C89.9895 63.5742 89.9895 49.3747 89.9932 35.1752C89.9932 34.8287 90.0239 34.4737 90.1012 34.1357C90.4643 32.5349 91.9967 31.2099 93.6714 31.0245C95.3474 30.8378 97.0638 31.7504 97.7926 33.2646C97.9754 33.6452 98.1779 33.7648 98.6024 33.7648C109.591 33.7514 120.579 33.7477 131.567 33.7648C133.527 33.7685 135.035 34.6811 136.137 36.2806C136.602 36.9554 136.795 37.7326 137.011 38.5024V38.5012ZM106.534 50.191C109.15 50.191 111.766 50.1812 114.382 50.2007C114.788 50.2044 114.89 50.1019 114.887 49.6981C114.871 45.5143 114.877 41.3306 114.877 37.1481C114.877 36.7121 114.652 36.4937 114.201 36.4929C109.062 36.4929 103.921 36.499 98.7815 36.4807C98.3165 36.4795 98.2392 36.6235 98.2404 37.0444C98.2564 41.2586 98.2613 45.4716 98.238 49.6859C98.2355 50.1422 98.3889 50.1995 98.7778 50.1971C101.363 50.1837 103.948 50.1898 106.533 50.191H106.534ZM95.4995 54.8932C95.4995 48.3804 95.4995 41.8675 95.4995 35.3546C95.4995 34.3724 94.9756 33.7599 94.1315 33.7526C93.2874 33.7453 92.7415 34.3883 92.7427 35.3839C92.7439 36.2514 92.7427 37.1188 92.7427 37.9863C92.7427 50.191 92.7451 62.3944 92.7329 74.599C92.7329 74.9809 92.847 75.0554 93.1917 75.0419C93.788 75.0175 94.3867 75.0078 94.9818 75.0444C95.4002 75.07 95.5118 74.9504 95.5106 74.5246C95.4959 67.9812 95.4995 61.4378 95.4995 54.8945V54.8932ZM134.223 61.9064C134.513 59.6284 132.985 58.3644 131.056 58.39C126.115 58.4571 121.171 58.4132 116.228 58.412C110.398 58.412 104.568 58.4169 98.7373 58.3998C98.3153 58.3998 98.2184 58.5242 98.2404 58.911C98.2723 59.4723 98.2527 60.036 98.2515 60.5996C98.2515 61.2085 98.249 61.2109 98.8772 61.2109C109.421 61.2048 119.964 61.2036 130.508 61.1841C131.787 61.1816 133.035 61.2426 134.222 61.9064H134.223ZM134.213 56.3842C134.457 54.282 133.251 52.9338 131.204 52.9338C120.429 52.9338 109.654 52.9313 98.8797 52.9301C98.7729 52.9301 98.6637 52.9411 98.5582 52.9277C98.3104 52.8984 98.2404 53.0131 98.2441 53.2437C98.2552 53.8525 98.2515 54.4613 98.2503 55.0702C98.2503 55.6729 98.2478 55.6741 98.8527 55.6741C109.429 55.6741 120.003 55.679 130.579 55.668C131.827 55.6668 133.049 55.7144 134.212 56.3854L134.213 56.3842ZM124.888 63.9573V63.95C122.624 63.95 120.362 63.9549 118.098 63.9451C117.763 63.9439 117.618 64.011 117.624 64.3929C117.648 65.929 117.645 67.4651 117.624 69C117.619 69.3477 117.724 69.4392 118.061 69.4356C119.483 69.4209 120.905 69.4307 122.327 69.4307C125.278 69.4307 128.23 69.4368 131.18 69.427C132.897 69.4209 134.044 68.5193 134.238 66.9661C134.433 65.3934 133.174 63.9329 131.447 63.9512C129.26 63.9744 127.073 63.9573 124.886 63.9573H124.888ZM124.843 36.4929V36.4905C122.595 36.4905 120.344 36.4966 118.095 36.4844C117.745 36.482 117.608 36.571 117.626 36.9419C117.655 37.5495 117.657 38.1608 117.626 38.7672C117.603 39.1637 117.753 39.2394 118.121 39.2394C122.391 39.2272 126.66 39.2418 130.93 39.2235C132 39.2186 133.029 39.3321 133.99 39.8238C134.188 39.9251 134.243 39.897 134.262 39.6689C134.418 37.8607 133.18 36.4954 131.364 36.4942C129.192 36.4917 127.019 36.4942 124.846 36.4942L124.843 36.4929ZM134.215 50.906C134.449 48.7854 133.253 47.4506 131.2 47.4519C127.867 47.4519 124.533 47.4519 121.2 47.4519C120.144 47.4519 119.089 47.4616 118.034 47.4433C117.709 47.4372 117.615 47.5421 117.626 47.8582C117.649 48.4804 117.657 49.1063 117.623 49.7273C117.602 50.1166 117.734 50.1995 118.108 50.1983C122.191 50.1849 126.273 50.1983 130.356 50.1837C131.675 50.1788 132.98 50.1776 134.213 50.9047L134.215 50.906ZM124.841 41.9724C122.591 41.9712 120.341 41.9773 118.091 41.9639C117.732 41.9614 117.61 42.0639 117.626 42.4263C117.653 43.0339 117.659 43.6452 117.623 44.2515C117.601 44.6469 117.747 44.7201 118.114 44.7188C122.415 44.7079 126.716 44.7225 131.017 44.7054C132.058 44.7018 133.054 44.8286 133.986 45.302C134.179 45.3997 134.239 45.3862 134.26 45.1508C134.416 43.3474 133.172 41.9748 131.361 41.9724C129.188 41.97 127.014 41.9724 124.841 41.9724Z" fill="#187B32"/>
</g>
<defs>
<clipPath id="clip0_1_3343">
<rect width="47.0212" height="46.7737" fill="white" transform="translate(89.9895 31)"/>
</clipPath>
</defs>
</svg>
