<svg width="274" height="154" viewBox="0 0 274 154" fill="none" xmlns="http://www.w3.org/2000/svg">
<path d="M18.428 131.2V148H13.772L7.388 140.368V148H1.868V131.2H6.524L12.908 138.832V131.2H18.428ZM32.6051 145.072H26.2211L25.0931 148H19.3331L26.6771 131.2H32.2451L39.5891 148H33.7331L32.6051 145.072ZM31.0451 140.992L29.4131 136.768L27.7811 140.992H31.0451ZM43.2973 135.592H38.3773V131.2H53.8813V135.592H48.9613V148H43.2973V135.592ZM63.158 148.384C60.582 148.384 58.574 147.688 57.134 146.296C55.694 144.904 54.974 142.952 54.974 140.44V131.2H60.638V140.272C60.638 141.504 60.854 142.4 61.286 142.96C61.734 143.52 62.374 143.8 63.206 143.8C64.038 143.8 64.67 143.52 65.102 142.96C65.55 142.4 65.774 141.504 65.774 140.272V131.2H71.342V140.44C71.342 142.952 70.622 144.904 69.182 146.296C67.742 147.688 65.734 148.384 63.158 148.384ZM81.1383 143.776H79.6023V148H73.9383V131.2H82.0263C83.5783 131.2 84.9303 131.456 86.0823 131.968C87.2343 132.48 88.1223 133.216 88.7463 134.176C89.3703 135.136 89.6823 136.256 89.6823 137.536C89.6823 138.736 89.4103 139.784 88.8663 140.68C88.3223 141.576 87.5383 142.288 86.5143 142.816L90.0423 148H83.9943L81.1383 143.776ZM83.9703 137.536C83.9703 136.912 83.7783 136.432 83.3943 136.096C83.0103 135.744 82.4343 135.568 81.6663 135.568H79.6023V139.504H81.6663C82.4343 139.504 83.0103 139.336 83.3943 139C83.7783 138.648 83.9703 138.16 83.9703 137.536ZM105.789 143.728V148H91.8211V131.2H105.477V135.472H97.3891V137.44H104.493V141.52H97.3891V143.728H105.789ZM121.429 148.384C120.037 148.384 118.677 148.232 117.349 147.928C116.037 147.608 114.957 147.184 114.109 146.656L115.933 142.528C116.733 142.992 117.629 143.368 118.621 143.656C119.613 143.928 120.565 144.064 121.477 144.064C122.261 144.064 122.821 143.992 123.157 143.848C123.493 143.688 123.661 143.456 123.661 143.152C123.661 142.8 123.437 142.536 122.989 142.36C122.557 142.184 121.837 141.992 120.829 141.784C119.533 141.512 118.453 141.224 117.589 140.92C116.725 140.6 115.973 140.088 115.333 139.384C114.693 138.664 114.373 137.696 114.373 136.48C114.373 135.424 114.669 134.464 115.261 133.6C115.853 132.736 116.733 132.056 117.901 131.56C119.085 131.064 120.517 130.816 122.197 130.816C123.349 130.816 124.477 130.944 125.581 131.2C126.701 131.44 127.685 131.8 128.533 132.28L126.829 136.384C125.181 135.552 123.621 135.136 122.149 135.136C120.693 135.136 119.965 135.488 119.965 136.192C119.965 136.528 120.181 136.784 120.613 136.96C121.045 137.12 121.757 137.296 122.749 137.488C124.029 137.728 125.109 138.008 125.989 138.328C126.869 138.632 127.629 139.136 128.269 139.84C128.925 140.544 129.253 141.504 129.253 142.72C129.253 143.776 128.957 144.736 128.365 145.6C127.773 146.448 126.885 147.128 125.701 147.64C124.533 148.136 123.109 148.384 121.429 148.384ZM138.978 148.384C136.402 148.384 134.394 147.688 132.954 146.296C131.514 144.904 130.794 142.952 130.794 140.44V131.2H136.458V140.272C136.458 141.504 136.674 142.4 137.106 142.96C137.554 143.52 138.194 143.8 139.026 143.8C139.858 143.8 140.49 143.52 140.922 142.96C141.37 142.4 141.594 141.504 141.594 140.272V131.2H147.162V140.44C147.162 142.952 146.442 144.904 145.002 146.296C143.562 147.688 141.554 148.384 138.978 148.384ZM157.847 131.2C159.399 131.2 160.751 131.456 161.903 131.968C163.055 132.48 163.943 133.216 164.567 134.176C165.191 135.136 165.503 136.256 165.503 137.536C165.503 138.816 165.191 139.936 164.567 140.896C163.943 141.856 163.055 142.592 161.903 143.104C160.751 143.616 159.399 143.872 157.847 143.872H155.423V148H149.759V131.2H157.847ZM157.487 139.504C158.255 139.504 158.831 139.336 159.215 139C159.599 138.648 159.791 138.16 159.791 137.536C159.791 136.912 159.599 136.432 159.215 136.096C158.831 135.744 158.255 135.568 157.487 135.568H155.423V139.504H157.487ZM175.448 131.2C177 131.2 178.352 131.456 179.504 131.968C180.656 132.48 181.544 133.216 182.168 134.176C182.792 135.136 183.104 136.256 183.104 137.536C183.104 138.816 182.792 139.936 182.168 140.896C181.544 141.856 180.656 142.592 179.504 143.104C178.352 143.616 177 143.872 175.448 143.872H173.024V148H167.36V131.2H175.448ZM175.088 139.504C175.856 139.504 176.432 139.336 176.816 139C177.2 138.648 177.392 138.16 177.392 137.536C177.392 136.912 177.2 136.432 176.816 136.096C176.432 135.744 175.856 135.568 175.088 135.568H173.024V139.504H175.088ZM194.004 148.384C192.196 148.384 190.572 148.008 189.132 147.256C187.692 146.504 186.564 145.464 185.748 144.136C184.932 142.792 184.524 141.28 184.524 139.6C184.524 137.92 184.932 136.416 185.748 135.088C186.564 133.744 187.692 132.696 189.132 131.944C190.572 131.192 192.196 130.816 194.004 130.816C195.812 130.816 197.436 131.192 198.876 131.944C200.316 132.696 201.444 133.744 202.26 135.088C203.076 136.416 203.484 137.92 203.484 139.6C203.484 141.28 203.076 142.792 202.26 144.136C201.444 145.464 200.316 146.504 198.876 147.256C197.436 148.008 195.812 148.384 194.004 148.384ZM194.004 143.8C194.708 143.8 195.34 143.632 195.9 143.296C196.476 142.944 196.932 142.456 197.268 141.832C197.604 141.192 197.772 140.448 197.772 139.6C197.772 138.752 197.604 138.016 197.268 137.392C196.932 136.752 196.476 136.264 195.9 135.928C195.34 135.576 194.708 135.4 194.004 135.4C193.3 135.4 192.66 135.576 192.084 135.928C191.524 136.264 191.076 136.752 190.74 137.392C190.404 138.016 190.236 138.752 190.236 139.6C190.236 140.448 190.404 141.192 190.74 141.832C191.076 142.456 191.524 142.944 192.084 143.296C192.66 143.632 193.3 143.8 194.004 143.8ZM212.74 143.776H211.204V148H205.54V131.2H213.628C215.18 131.2 216.532 131.456 217.684 131.968C218.836 132.48 219.724 133.216 220.348 134.176C220.972 135.136 221.284 136.256 221.284 137.536C221.284 138.736 221.012 139.784 220.468 140.68C219.924 141.576 219.14 142.288 218.116 142.816L221.644 148H215.596L212.74 143.776ZM215.572 137.536C215.572 136.912 215.38 136.432 214.996 136.096C214.612 135.744 214.036 135.568 213.268 135.568H211.204V139.504H213.268C214.036 139.504 214.612 139.336 214.996 139C215.38 138.648 215.572 138.16 215.572 137.536ZM226.836 135.592H221.916V131.2H237.42V135.592H232.5V148H226.836V135.592ZM252.859 143.728V148H238.891V131.2H252.547V135.472H244.459V137.44H251.563V141.52H244.459V143.728H252.859ZM255.04 131.2H263.32C265.192 131.2 266.84 131.544 268.264 132.232C269.704 132.904 270.816 133.872 271.6 135.136C272.4 136.4 272.8 137.888 272.8 139.6C272.8 141.312 272.4 142.8 271.6 144.064C270.816 145.328 269.704 146.304 268.264 146.992C266.84 147.664 265.192 148 263.32 148H255.04V131.2ZM263.08 143.584C264.296 143.584 265.264 143.24 265.984 142.552C266.72 141.848 267.088 140.864 267.088 139.6C267.088 138.336 266.72 137.36 265.984 136.672C265.264 135.968 264.296 135.616 263.08 135.616H260.704V143.584H263.08Z" fill="#202020"/>
<circle cx="136.5" cy="54" r="53.5" stroke="#187B32"/>
<path d="M135.842 28.4805C136.732 29.7121 137.606 30.9559 138.517 32.1724C140.965 35.4455 143.056 38.9285 144.485 42.8013C144.613 43.1489 144.767 43.165 145.066 43.0535C148.342 41.8238 151.621 40.6042 154.9 39.3806C155.141 39.2912 155.376 39.1877 155.665 39.0702C155.849 40.0145 156.038 40.9076 156.197 41.8067C156.555 43.8391 156.939 45.8684 157.237 47.9108C157.612 50.4806 157.624 53.0685 157.439 55.6594C157.234 58.5216 156.668 61.3044 155.647 63.9757C153.163 70.4695 148.651 74.8698 142.374 77.4215C139.301 78.6702 136.103 79.4338 132.811 79.6035C129.4 79.7794 125.979 79.7633 122.564 79.8135C122.418 79.8155 122.196 79.6729 122.132 79.5372C120.104 75.2304 117.94 70.9819 116.109 66.5867C112.757 58.5477 114.768 49.1304 120.967 43.1188C122.87 41.2723 124.92 39.5865 126.868 37.7883C130.019 34.8809 132.938 31.7364 135.744 28.4805C135.776 28.4805 135.81 28.4805 135.842 28.4805ZM151.688 43.9817C151.412 44.0571 151.274 44.0832 151.144 44.1324C147.153 45.6434 143.093 46.9293 138.957 47.945C135.614 48.7657 132.627 50.2556 130.155 52.731C126.668 56.222 124.784 60.4676 124.694 65.4866C124.638 68.6602 124.678 71.8358 124.677 75.0114C124.677 75.1159 124.703 75.2204 124.731 75.4273C135.874 66.868 145.241 56.8419 151.689 43.9828L151.688 43.9817ZM121.566 71.442C121.609 71.434 121.651 71.4269 121.694 71.4189C121.694 71.1416 121.69 70.8634 121.694 70.5861C121.741 67.9339 121.549 65.2737 121.961 62.6325C122.79 57.3141 125.253 52.951 129.254 49.4961C131.972 47.1493 135.124 45.7217 138.572 44.9271C139.642 44.681 140.695 44.3555 141.789 44.0561C140.321 40.0346 138.135 36.5365 135.568 33.2343C135.473 33.3207 135.409 33.37 135.355 33.4302C131.704 37.4889 127.63 41.0784 123.626 44.7573C118.234 49.7131 116.406 55.9618 118.077 63.2092C118.756 66.1557 120.397 68.6994 121.564 71.443L121.566 71.442ZM127.892 76.7936C131.404 76.865 135.855 76.45 139.638 75.2073C149.614 71.9313 153.739 64.2801 154.498 55.5489C154.69 53.3287 154.617 51.1105 154.399 48.8953C154.353 48.4312 154.282 47.9691 154.217 47.507C154.151 47.0458 154.078 46.5857 153.992 46.0191C147.629 58.4352 138.595 68.2986 127.892 76.7936Z" fill="#187B32"/>
</svg>
