<svg width="208" height="154" viewBox="0 0 208 154" fill="none" xmlns="http://www.w3.org/2000/svg">
<path d="M15.817 135.472H7.82497V138.352H14.833V142.624H7.82497V148H2.16097V131.2H15.817V135.472ZM29.5729 148L28.4449 145.072H22.0609L20.9329 148H15.1729L22.5169 131.2H28.0849L35.4289 148H29.5729ZM23.6209 140.992H26.8849L25.2529 136.768L23.6209 140.992ZM56.4928 148H51.3328L51.2848 140.344L47.6368 146.488H45.1408L41.4928 140.608V148H36.3328V131.2H40.9888L46.4608 140.152L51.7888 131.2H56.4448L56.4928 148ZM59.2313 148V131.2H64.8953V148H59.2313ZM67.6219 148V131.2H73.2859V143.608H80.8699V148H67.6219ZM97.0669 131.2L90.7309 141.904V148H85.0669V141.832L78.7309 131.2H84.7069L88.1389 137.008L91.5949 131.2H97.0669ZM113.789 148.384C108.317 148.384 104.309 144.688 104.309 139.6C104.309 134.512 108.317 130.816 113.789 130.816C119.261 130.816 123.269 134.512 123.269 139.6C123.269 144.688 119.261 148.384 113.789 148.384ZM113.789 143.8C115.877 143.8 117.557 142.216 117.557 139.6C117.557 136.984 115.877 135.4 113.789 135.4C111.701 135.4 110.021 136.984 110.021 139.6C110.021 142.216 111.701 143.8 113.789 143.8ZM146.676 131.2H152.052L146.676 148H140.604L137.892 139.024L135.036 148H128.964L123.588 131.2H129.42L132.348 140.752L135.444 131.2H140.652L143.58 140.872L146.676 131.2ZM164.349 131.2H169.869V148H165.213L158.829 140.368V148H153.309V131.2H157.965L164.349 138.832V131.2ZM178.166 143.728H186.566V148H172.598V131.2H186.254V135.472H178.166V137.44H185.27V141.52H178.166V143.728ZM188.747 148V131.2H197.027C202.643 131.2 206.507 134.392 206.507 139.6C206.507 144.808 202.643 148 197.027 148H188.747ZM194.411 143.584H196.787C199.163 143.584 200.795 142.168 200.795 139.6C200.795 137.032 199.163 135.616 196.787 135.616H194.411V143.584Z" fill="#202020"/>
<circle cx="103.5" cy="54" r="53.5" stroke="#187B32"/>
<path d="M119.19 69.206H131.377C129.925 58.0158 124.315 54.9768 117.624 54.9768C114.691 54.9768 111.986 55.5448 109.736 57.1353C114.434 58.9814 117.567 62.9861 119.19 69.206Z" stroke="#187B32" stroke-width="3" stroke-miterlimit="10"/>
<path d="M117.624 35.5785C115.459 35.5785 113.495 36.3737 111.985 37.6802C113.21 39.4979 113.95 41.6848 113.95 44.0137C113.95 46.3427 113.181 48.6716 111.872 50.5177C113.409 51.881 115.402 52.733 117.624 52.733C122.379 52.733 126.223 48.8988 126.223 44.1557C126.223 39.4127 122.35 35.55 117.624 35.55" stroke="#187B32" stroke-width="3" stroke-miterlimit="10"/>
<path d="M87.8103 69.206H75.623C77.0753 58.0158 82.6848 54.9768 89.3764 54.9768C92.3093 54.9768 95.0145 55.5448 97.264 57.1353C92.5656 58.9814 89.4334 62.9861 87.8103 69.206Z" stroke="#187B32" stroke-width="3" stroke-miterlimit="10"/>
<path d="M89.3765 35.5785C91.5406 35.5785 93.5054 36.3737 95.0146 37.6802C93.7901 39.4979 93.0498 41.6848 93.0498 44.0137C93.0498 46.3427 93.8186 48.6716 95.1285 50.5177C93.5908 51.881 91.5976 52.733 89.3765 52.733C84.6212 52.733 80.7771 48.8988 80.7771 44.1557C80.7771 39.4127 84.6212 35.55 89.3765 35.55" stroke="#187B32" stroke-width="3" stroke-miterlimit="10"/>
<path d="M103.557 56.5957C95.5555 56.5957 88.8639 60.2311 87.127 73.5799H119.987C118.25 60.2311 111.558 56.5957 103.557 56.5957Z" stroke="#187B32" stroke-width="3" stroke-miterlimit="10"/>
<path d="M113.836 43.6729C113.836 49.3248 109.224 53.9259 103.557 53.9259C97.8905 53.9259 93.2776 49.3248 93.2776 43.6729C93.2776 38.021 97.8905 33.4199 103.557 33.4199C109.224 33.4199 113.836 38.021 113.836 43.6729Z" stroke="#187B32" stroke-width="3" stroke-miterlimit="10"/>
</svg>
